<svg xmlns="http://www.w3.org/2000/svg"><path d="m45.32 21.57-.684-2.254a4.896 4.896 0 0 0-9.272 0l-.684 2.254a12.66 12.66 0 0 0-.354 5.867 5.518 5.518 0 0 0 2.842 3.845l-.767 17.145a3.378 3.378 0 0 0 .853 2.626 3.726 3.726 0 0 0 5.5 0c.631-.694.941-1.621.854-2.555l-.772-17.218a5.516 5.516 0 0 0 2.838-3.843 12.66 12.66 0 0 0-.353-5.867Zm-1.748 5.496a3.382 3.382 0 0 1-2.213 2.548c-.433.162-.711.585-.69 1.046l.81 18.007c.038.353-.079.705-.32.966a1.648 1.648 0 0 1-2.319 0 1.28 1.28 0 0 1-.313-1.037l.804-17.936a1.066 1.066 0 0 0-.69-1.046 3.382 3.382 0 0 1-2.213-2.548 10.518 10.518 0 0 1 .293-4.87l.685-2.256a2.766 2.766 0 0 1 5.188 0l.685 2.255c.477 1.578.578 3.247.293 4.87ZM28.8 16c-.59 0-1.067.478-1.067 1.067v9.158l-2.887 2.887a1.067 1.067 0 0 0-.313.808l.934 18.667c.022.402-.124.796-.403 1.087a1.502 1.502 0 0 1-2.125.009l-.009-.01a1.453 1.453 0 0 1-.403-1.086l.94-18.667a1.067 1.067 0 0 0-.312-.808l-2.888-2.887v-9.158a1.067 1.067 0 0 0-2.134 0v9.6c0 .283.113.554.313.754l2.865 2.866-.91 18.196a3.603 3.603 0 1 0 7.198 0l-.91-18.196 2.865-2.866c.2-.2.313-.471.313-.754v-9.6c0-.59-.478-1.067-1.067-1.067Z"/><path d="M22.4 16c-.59 0-1.067.478-1.067 1.067V25.6a1.067 1.067 0 0 0 2.134 0v-8.533c0-.59-.478-1.067-1.067-1.067ZM25.6 16c-.59 0-1.067.478-1.067 1.067V25.6a1.067 1.067 0 0 0 2.134 0v-8.533c0-.59-.478-1.067-1.067-1.067Z"/><path d="M32 0C14.327 0 0 14.327 0 32c0 17.673 14.327 32 32 32 17.673 0 32-14.327 32-32C63.98 14.335 49.665.02 32 0Zm0 61.867C15.505 61.867 2.133 48.495 2.133 32S15.505 2.133 32 2.133 61.867 15.505 61.867 32C61.847 48.487 48.487 61.848 32 61.867Z"/><path d="M35.462 52.023a1.067 1.067 0 0 0-1.206-.953l.004-.001a19.595 19.595 0 0 1-4.52 0 1.067 1.067 0 1 0-.249 2.12c1.666.194 3.348.194 5.014 0a1.066 1.066 0 0 0 .957-1.166ZM48.32 18.255a1.067 1.067 0 0 0-1.503-.132l-.004.004a1.067 1.067 0 0 0-.128 1.503c6.431 7.635 5.94 18.924-1.132 25.97a1.067 1.067 0 0 0 1.506 1.511c7.858-7.828 8.406-20.372 1.261-28.856ZM24.851 14.1h-.004.004ZM37.032 11.263c-4.17-1-8.541-.73-12.556.771a1.067 1.067 0 0 0 .748 1.996 19.378 19.378 0 0 1 11.306-.693 1.067 1.067 0 1 0 .502-2.074ZM18.399 45.547A19.076 19.076 0 0 1 12.8 32a19.058 19.058 0 0 1 3.67-11.294 1.067 1.067 0 1 0-1.723-1.256c-6.167 8.478-5.26 20.18 2.14 27.607a1.068 1.068 0 1 0 1.512-1.51Z"/></svg>