<svg xmlns="http://www.w3.org/2000/svg"><g clip-path="url(#a)"><path d="M55.82 22.04a1.068 1.068 0 0 0-1.44-.454l-4.892 2.542h-.007l-17.329 9.017 5.874-18.605c0-.008.008-.013.01-.022l1.656-5.275a1.068 1.068 0 0 0-.7-1.337C23.904 3.042 7.73 11.329 2.865 26.417-1.999 41.505 6.29 57.68 21.376 62.544l.347.11A28.819 28.819 0 0 0 30.404 64a28.762 28.762 0 0 0 27.338-20.076A28.478 28.478 0 0 0 55.82 22.04ZM29.34 34.962a1.068 1.068 0 0 0 1.512 1.268l18.616-9.686c.082.178.17.354.247.534.107.258.213.518.32.78.138.36.262.723.378 1.089.089.277.175.556.252.836.098.357.18.718.259 1.08.063.29.127.58.177.872.062.362.107.725.15 1.09.035.293.073.585.096.88.027.373.034.748.041 1.12.007.288.02.574.014.861-.007.396-.041.792-.071 1.189-.022.264-.031.534-.061.794-.054.453-.136.904-.214 1.354-.037.207-.06.416-.107.622-.14.659-.31 1.315-.517 1.967a20.916 20.916 0 0 1-10.358 12.337c-.438.229-.887.42-1.336.615-10.642 4.641-23.032-.224-27.673-10.866-4.05-9.286-.9-20.14 7.49-25.816.674-.46 1.374-.882 2.096-1.262a21.419 21.419 0 0 1 1.726-.795c.101-.042.203-.085.305-.125a22.79 22.79 0 0 1 1.718-.595c.098-.03.198-.055.297-.083.564-.159 1.131-.297 1.704-.408.045-.008.09-.02.135-.028.598-.107 1.202-.19 1.807-.25l.353-.031a20.642 20.642 0 0 1 1.799-.067c.093 0 .185.006.277.008.539.01 1.08.045 1.619.098.123.012.246.022.37.036.596.07 1.191.166 1.786.286.125.025.25.057.374.085.247.056.493.13.74.194l-6.32 20.017Zm26.36 8.316c-4.42 13.995-19.348 21.757-33.342 17.338A26.573 26.573 0 0 1 6.79 47.549C-.006 34.557 5.017 18.516 18.008 11.72a26.548 26.548 0 0 1 19.318-2.08l-1.016 3.242c-.22-.058-.443-.092-.663-.144a24.3 24.3 0 0 0-.974-.213 22.918 22.918 0 0 0-1.195-.191 21.657 21.657 0 0 0-1.009-.124 23.28 23.28 0 0 0-1.185-.073c-.338-.014-.676-.03-1.013-.03-.399 0-.795.024-1.192.046-.333.018-.664.03-.995.063-.406.04-.81.107-1.212.167-.32.048-.641.087-.955.15-.419.082-.833.192-1.248.298-.296.076-.594.139-.888.226-.443.133-.88.296-1.318.457-.258.094-.52.171-.775.276-.534.214-1.052.466-1.57.722-.151.075-.307.132-.457.214-.62.32-1.215.678-1.797 1.048C7.774 22.221 4.266 35.3 9.774 45.93c.01.017.016.035.024.05.022.041.048.077.069.118a23.006 23.006 0 0 0 13.521 11.29c.032.01.064.016.095.025a23.3 23.3 0 0 0 1.909.501c.23.051.462.09.694.136.454.085.909.16 1.365.213.254.032.507.063.76.088.476.045.951.071 1.427.086.213.008.427.024.632.025h.115a22.603 22.603 0 0 0 2.271-.123 22.595 22.595 0 0 0 1.875-.257c.106-.02.213-.046.32-.068a20.506 20.506 0 0 0 1.68-.402c.146-.04.292-.078.438-.122a23.207 23.207 0 0 0 2.225-.797c.63-.261 1.255-.54 1.867-.854a23.025 23.025 0 0 0 11.4-13.582c.031-.1.05-.203.08-.303.186-.619.355-1.238.489-1.863.052-.245.08-.492.124-.739.088-.485.178-.968.234-1.455.032-.278.041-.556.063-.834.036-.456.074-.911.083-1.366.006-.295-.01-.589-.015-.883-.009-.437-.016-.874-.05-1.31-.024-.306-.067-.61-.102-.916-.05-.42-.1-.837-.172-1.254-.055-.32-.127-.63-.195-.945a24.538 24.538 0 0 0-.285-1.19c-.09-.32-.194-.648-.297-.97-.121-.374-.246-.747-.386-1.115a23.691 23.691 0 0 0-.41-.998c-.082-.19-.146-.383-.234-.57l3.013-1.568a26.343 26.343 0 0 1 1.298 19.3Z"/><path d="M62.41 14.252A28.377 28.377 0 0 0 45.606.05a1.068 1.068 0 0 0-1.34.698L42.59 6.066l-6.72 21.3a1.068 1.068 0 0 0 1.516 1.265l19.66-10.358 4.912-2.59c.517-.272.72-.91.453-1.43ZM44.897 10.6a1.602 1.602 0 1 1 0 3.204 1.602 1.602 0 0 1 0-3.204Zm-6.21 14.931 1.43-4.53a3.723 3.723 0 0 0 1.698 2.883l-3.127 1.647Zm5.142-3.184a1.602 1.602 0 1 1 0-3.204 1.602 1.602 0 0 1 0 3.204Zm3.738-1.489c0-.04.012-.076.012-.115a3.722 3.722 0 0 0-6.633-2.335l1.168-3.736a3.745 3.745 0 1 0 1.928-6.1l.252-.796c.182.067.367.129.546.201.246.1.49.2.73.308.368.164.727.343 1.082.528.222.115.448.227.666.35.378.214.747.447 1.107.684.177.116.36.222.534.344a21.02 21.02 0 0 1 1.495 1.14l.04.03c.492.416.962.855 1.411 1.32.144.147.278.307.419.459.298.32.591.65.87.993.156.192.302.393.452.591.244.32.483.652.709.99.145.214.285.441.427.666.107.17.2.347.3.52l-7.515 3.958Zm9.416-4.964c-.118-.206-.254-.398-.378-.6a18.23 18.23 0 0 0-.475-.747c-.247-.37-.509-.728-.776-1.082-.167-.223-.33-.45-.507-.666a23.118 23.118 0 0 0-.952-1.087c-.16-.172-.31-.353-.474-.52a22.93 22.93 0 0 0-1.545-1.444l-.016-.015c-.543-.46-1.111-.89-1.697-1.296-.19-.133-.393-.25-.587-.376-.404-.264-.81-.522-1.231-.76-.242-.136-.49-.258-.737-.386a23.81 23.81 0 0 0-1.197-.584c-.268-.119-.54-.229-.813-.338-.22-.088-.433-.192-.658-.274l1.038-3.297a26.224 26.224 0 0 1 14.035 11.876l-3.03 1.596ZM25.675 17.008a3.737 3.737 0 1 0 0 7.475 3.737 3.737 0 0 0 0-7.475Zm0 5.339a1.602 1.602 0 1 1 0-3.204 1.602 1.602 0 0 1 0 3.204ZM14.996 26.619a3.738 3.738 0 1 0 0 7.475 3.738 3.738 0 0 0 0-7.476Zm0 5.339a1.602 1.602 0 1 1 0-3.204 1.602 1.602 0 0 1 0 3.204ZM25.675 26.619a3.738 3.738 0 1 0 0 7.475 3.738 3.738 0 0 0 0-7.476Zm0 5.339a1.602 1.602 0 1 1 0-3.204 1.602 1.602 0 0 1 0 3.204ZM36.353 45.84a3.738 3.738 0 1 0 0 7.476 3.738 3.738 0 0 0 0-7.475Zm0 5.34a1.602 1.602 0 1 1 0-3.204 1.602 1.602 0 0 1 0 3.204ZM43.829 38.365a3.738 3.738 0 1 0 0 7.476 3.738 3.738 0 0 0 0-7.476Zm0 5.34a1.602 1.602 0 1 1 0-3.204 1.602 1.602 0 0 1 0 3.204ZM47.032 29.822a3.738 3.738 0 1 0 0 7.475 3.738 3.738 0 0 0 0-7.475Zm0 5.34a1.602 1.602 0 1 1 0-3.204 1.602 1.602 0 0 1 0 3.204ZM16.064 37.297a3.738 3.738 0 1 0 0 7.476 3.738 3.738 0 0 0 0-7.476Zm0 5.34a1.602 1.602 0 1 1 0-3.204 1.602 1.602 0 0 1 0 3.204ZM33.15 36.23a3.738 3.738 0 1 0 0 7.475 3.738 3.738 0 0 0 0-7.475Zm0 5.34a1.602 1.602 0 1 1 0-3.205 1.602 1.602 0 0 1 0 3.204ZM23.539 45.84a3.738 3.738 0 1 0 0 7.476 3.738 3.738 0 0 0 0-7.475Zm0 5.34a1.602 1.602 0 1 1 0-3.204 1.602 1.602 0 0 1 0 3.204ZM17.665 22.347a1.068 1.068 0 0 0 0 2.136c.59 0 1.068.478 1.068 1.068a1.068 1.068 0 1 0 2.136 0 3.204 3.204 0 0 0-3.204-3.204ZM31.548 44.773a3.204 3.204 0 0 0-3.204 3.203 1.068 1.068 0 0 0 2.136 0c0-.59.478-1.068 1.068-1.068a1.068 1.068 0 0 0 0-2.135ZM33.813 16.252a1.068 1.068 0 0 0-1.51 0 1.093 1.093 0 0 1-1.51 0 1.068 1.068 0 1 0-1.511 1.51 3.204 3.204 0 0 0 4.53.002l.002-.001a1.068 1.068 0 0 0 0-1.511ZM41.159 34.094a3.204 3.204 0 0 0-3.204 3.203 1.068 1.068 0 0 0 2.136 0c0-.59.478-1.067 1.068-1.067a1.068 1.068 0 1 0 0-2.136ZM24.83 36.1l-.002-.002a1.068 1.068 0 1 0-1.51 1.511 1.068 1.068 0 0 1 0 1.51 1.068 1.068 0 1 0 1.51 1.511 3.204 3.204 0 0 0 .001-4.53Z"/><path d="M50.77 13.804c-.59 0-1.068.478-1.068 1.068 0 .59-.478 1.068-1.068 1.068a1.068 1.068 0 0 0 0 2.136 3.204 3.204 0 0 0 3.204-3.204c0-.59-.478-1.068-1.068-1.068Z"/></g><defs><clipPath id="a"><path fill="#fff" d="M0 0h64v64H0z"/></clipPath></defs></svg>