<svg xmlns="http://www.w3.org/2000/svg"><g clip-path="url(#a)"><path d="M19.198 49.602a3.2 3.2 0 1 0 0 6.4 3.2 3.2 0 0 0 0-6.4Zm0 4.266a1.067 1.067 0 1 1 0-2.134 1.067 1.067 0 0 1 0 2.134ZM50.127 49.602a3.2 3.2 0 1 0 0 6.399 3.2 3.2 0 0 0 0-6.4Zm0 4.266a1.067 1.067 0 1 1 0-2.134 1.067 1.067 0 0 1 0 2.134ZM3.2 21.872h2.133v2.133H3.2v-2.133ZM0 26.138h2.133v2.133H0v-2.133ZM52.26 11.206h6.4v2.133h-6.4v-2.133ZM47.994 11.206h2.133v2.133h-2.133v-2.133ZM34.13 4.807h10.665V6.94H34.129V4.807ZM29.863 4.807h2.133V6.94h-2.133V4.807Z"/><path d="M63.992 59.2v-2.133h-9.108a6.373 6.373 0 0 0 1.611-3.626l6.964-3.98c.05-.034.097-.072.14-.114a.982.982 0 0 0 .107-.084c.08-.085.145-.183.194-.29.005-.01.012-.016.017-.025.048-.12.075-.25.077-.38 0-.012.006-.021.006-.033v-9.599a.82.82 0 0 0-.02-.093.773.773 0 0 0 0-.083l-2.133-12.798a.492.492 0 0 0-.016-.047v-.036l-1.067-4.266a1.067 1.067 0 0 0-1.038-.808H46.79a3.179 3.179 0 0 0-.799-1.38l-7.282-7.282a3.178 3.178 0 0 0-2.262-.937h-25.78c-.59 0-1.067.478-1.067 1.067v4.266H0v2.133h9.599v3.2H7.466v2.133h2.133v2.133H4.266v2.133H9.6v9.599c-.59 0-1.067.477-1.067 1.066v9.599c0 .022.012.042.013.065.007.096.026.192.058.283.01.034.022.067.035.1.05.112.119.214.204.302l3.976 3.976a6.365 6.365 0 0 0 1.623 3.806H0V59.2h63.992Zm-19.89-8.532H25.224a6.344 6.344 0 0 0-.493-1.066h19.863c-.197.34-.362.696-.492 1.066Zm-18.505 2.133h18.131c0 1.577.586 3.097 1.643 4.266H23.954a6.368 6.368 0 0 0 1.643-4.266Zm20.264 0a4.266 4.266 0 1 1 8.533 0 4.266 4.266 0 0 1-8.533 0Zm10.429-1.706a6.327 6.327 0 0 0-.63-1.493h3.25l-2.62 1.493Zm5.376-13.225H51.194V27.204h8.695l1.777 10.666Zm-2.24-12.799h-9.299c-.589 0-1.066.478-1.066 1.067v12.798c0 .59.477 1.067 1.066 1.067H61.86v2.133h-3.2v2.133h3.2v3.2h-8.201a6.375 6.375 0 0 0-7.06 0h-23.87a6.376 6.376 0 0 0-7.06 0h-5.003v-4.267h4.267V41.07h-4.267v-1.066h35.196c.59 0 1.067-.478 1.067-1.067V22.938h11.966l.533 2.133Zm-47.694 3.2h8.532v-2.133h-8.532v-2.133h9.599v-2.133h-9.599v-3.2h5.333v-2.133h-5.333v-3.2h24.714c.282.001.553.114.754.313l7.282 7.282c.2.2.313.472.313.755v16.18H11.732v-9.598Zm1.933 21.33a6.31 6.31 0 0 0-.475 1.017l-1.016-1.016h1.49Zm1.267 3.2a4.266 4.266 0 1 1 8.532 0 4.266 4.266 0 0 1-8.532 0Z"/></g><defs><clipPath id="a"><path fill="#fff" d="M0 0h64v64H0z"/></clipPath></defs></svg>